{
    "asset" : {
        "generator" : "Khronos glTF Blender I/O v3.3.27",
        "version" : "2.0"
    },
    "scene" : 0,
    "scenes" : [
        {
            "name" : "Scene",
            "nodes" : [
                0,
                1
            ]
        }
    ],
    "nodes" : [
        {
            "mesh" : 0,
            "name" : "eyeball",
            "scale" : [
                1.9664576053619385,
                1.9664576053619385,
                1.9664576053619385
            ]
        },
        {
            "mesh" : 1,
            "name" : "eyelid",
            "scale" : [
                1.9664576053619385,
                1.9573792219161987,
                1.9664576053619385
            ]
        }
    ],
    "animations" : [
        {
            "channels" : [
                {
                    "sampler" : 0,
                    "target" : {
                        "node" : 1,
                        "path" : "translation"
                    }
                },
                {
                    "sampler" : 1,
                    "target" : {
                        "node" : 1,
                        "path" : "rotation"
                    }
                },
                {
                    "sampler" : 2,
                    "target" : {
                        "node" : 1,
                        "path" : "scale"
                    }
                }
            ],
            "name" : "wink",
            "samplers" : [
                {
                    "input" : 6,
                    "interpolation" : "LINEAR",
                    "output" : 7
                },
                {
                    "input" : 6,
                    "interpolation" : "LINEAR",
                    "output" : 8
                },
                {
                    "input" : 6,
                    "interpolation" : "LINEAR",
                    "output" : 9
                }
            ]
        }
    ],
    "meshes" : [
        {
            "name" : "Sphere.003",
            "primitives" : [
                {
                    "attributes" : {
                        "POSITION" : 0,
                        "NORMAL" : 1
                    },
                    "indices" : 2
                }
            ]
        },
        {
            "name" : "Sphere.005",
            "primitives" : [
                {
                    "attributes" : {
                        "POSITION" : 3,
                        "NORMAL" : 4
                    },
                    "indices" : 5
                }
            ]
        }
    ],
    "accessors" : [
        {
            "bufferView" : 0,
            "componentType" : 5126,
            "count" : 54046,
            "max" : [
                0.8426022529602051,
                1.0357552766799927,
                1.0111474990844727
            ],
            "min" : [
                -1.0111358165740967,
                -1.0357552766799927,
                -1.0111238956451416
            ],
            "type" : "VEC3"
        },
        {
            "bufferView" : 1,
            "componentType" : 5126,
            "count" : 54046,
            "type" : "VEC3"
        },
        {
            "bufferView" : 2,
            "componentType" : 5123,
            "count" : 318960,
            "type" : "SCALAR"
        },
        {
            "bufferView" : 3,
            "componentType" : 5126,
            "count" : 3904,
            "max" : [
                1.0141836404800415,
                0.41620057821273804,
                0.826127290725708
            ],
            "min" : [
                0.5221594572067261,
                -0.41620057821273804,
                -0.8260565400123596
            ],
            "type" : "VEC3"
        },
        {
            "bufferView" : 4,
            "componentType" : 5126,
            "count" : 3904,
            "type" : "VEC3"
        },
        {
            "bufferView" : 5,
            "componentType" : 5123,
            "count" : 23040,
            "type" : "SCALAR"
        },
        {
            "bufferView" : 6,
            "componentType" : 5126,
            "count" : 9,
            "max" : [
                0.375
            ],
            "min" : [
                0.041666666666666664
            ],
            "type" : "SCALAR"
        },
        {
            "bufferView" : 7,
            "componentType" : 5126,
            "count" : 9,
            "type" : "VEC3"
        },
        {
            "bufferView" : 8,
            "componentType" : 5126,
            "count" : 9,
            "type" : "VEC4"
        },
        {
            "bufferView" : 9,
            "componentType" : 5126,
            "count" : 9,
            "type" : "VEC3"
        }
    ],
    "bufferViews" : [
        {
            "buffer" : 0,
            "byteLength" : 648552,
            "byteOffset" : 0,
            "target" : 34962
        },
        {
            "buffer" : 0,
            "byteLength" : 648552,
            "byteOffset" : 648552,
            "target" : 34962
        },
        {
            "buffer" : 0,
            "byteLength" : 637920,
            "byteOffset" : 1297104,
            "target" : 34963
        },
        {
            "buffer" : 0,
            "byteLength" : 46848,
            "byteOffset" : 1935024,
            "target" : 34962
        },
        {
            "buffer" : 0,
            "byteLength" : 46848,
            "byteOffset" : 1981872,
            "target" : 34962
        },
        {
            "buffer" : 0,
            "byteLength" : 46080,
            "byteOffset" : 2028720,
            "target" : 34963
        },
        {
            "buffer" : 0,
            "byteLength" : 36,
            "byteOffset" : 2074800
        },
        {
            "buffer" : 0,
            "byteLength" : 108,
            "byteOffset" : 2074836
        },
        {
            "buffer" : 0,
            "byteLength" : 144,
            "byteOffset" : 2074944
        },
        {
            "buffer" : 0,
            "byteLength" : 108,
            "byteOffset" : 2075088
        }
    ],
    "buffers" : [
        {
            "byteLength" : 2075196,
            "uri" : "data:application/octet-stream;base64,"
        }
    ]
}
